<svg version="1.2" xmlns="http://www.w3.org/2000/svg" viewBox="0 0 1024 1024" width="1024" height="1024">
	<title>ChatGPT Image Aug 11, 2025, 02_51_33 PM</title>
	<style>
		.s0 { opacity: .95;fill: #0b0b0c } 
		.s1 { opacity: .89;fill: #77b5c2 } 
		.s2 { opacity: .81;fill: #ee9c08 } 
	</style>
	<g id="Background">
		<path id="Path 0" fill-rule="evenodd" class="s0" d="m624 469.1c1.9-0.1 5.2 0.5 7.4 1.2 2.1 0.6 5.4 2.5 7.4 4.2 2 1.6 4.6 5.2 5.9 8 2.1 4.6 2.3 6.4 2.3 21 0 11.2-0.3 16.4-1.2 17.2-0.7 0.7-2.6 1.3-4.2 1.3-1.7 0-3.7-0.5-4.4-1.2-0.9-0.9-1.2-5.4-1.2-15.6 0-9.5-0.4-15.3-1.3-17.5-0.8-1.7-2.7-4.2-4.3-5.5-1.8-1.4-4.2-2.3-6.4-2.2-1.9 0-4.5 0.7-5.8 1.5-1.2 0.8-2.9 2.9-3.7 4.5-1.1 2.3-1.5 6.7-1.5 18.2 0 10.7-0.3 15.7-1.2 16.5-0.7 0.7-2.6 1.3-4.2 1.3-1.7 0-3.7-0.5-4.4-1.2-0.9-1-1.2-5.8-1.2-17.8 0-15.1 0.2-16.9 2.3-21.5 1.3-2.8 3.8-6.1 5.8-7.5 1.9-1.3 5-3 6.9-3.7 1.9-0.7 5.1-1.2 7-1.2zm-252.6 1.1c10.7 0.2 13.8 0.7 17 2.3 2.1 1.1 4.6 3.4 5.6 5 1 1.6 2 4.7 2.4 6.7 0.3 2.1 0.2 5.5-0.3 7.5-0.6 2.4-2.5 5.2-5 7.5-2.3 2.1-4.1 4.1-4.1 4.5 0.1 0.5 2.1 3.4 4.5 6.5 2.5 3.2 4.5 6.6 4.5 7.5 0.1 1-0.5 2.4-1.2 3.1-0.7 0.7-2.9 1.1-4.8 1-2.9-0.3-4-1.1-7.2-5.8-2.1-3-4.9-7-6.3-8.8-2.1-2.7-3.2-3.2-10.5-3.2v7.7c0 4.8-0.4 8.3-1.2 9-0.7 0.7-2.6 1.3-4.2 1.3-1.7 0-3.7-0.5-4.4-1.2-0.9-1-1.2-7.2-1.3-24.5 0-20.6 0.1-23.3 1.7-24.8 1.4-1.4 3.7-1.6 14.8-1.3zm-5.4 24.8c12 0.1 14.1-0.4 16.2-2 2.3-1.6 2.8-2.8 2.8-6 0-3-0.5-4.4-2.3-5.5-1.4-1-4.6-1.5-9.5-1.5h-7.2zm56.4-25c1.7 0 3.7 0.5 4.4 1.2 0.9 1 1.2 7.2 1.2 24.8 0 17.1-0.3 23.8-1.2 24.7-0.7 0.7-2.6 1.3-4.2 1.3-1.7 0-3.7-0.5-4.4-1.2-0.9-1-1.3-7.4-1.4-24.9-0.2-19.1 0.1-23.7 1.2-24.7 0.8-0.7 2.8-1.2 4.4-1.2zm42 0.2c9.5 0.3 13 0.8 16.1 2.3 2.1 1.1 5.2 3.4 6.9 5 1.6 1.6 3.8 4.9 4.8 7.2 1.2 2.8 1.8 6.8 1.8 11.5 0.1 5.8-0.4 8.4-2.5 12.5-1.6 3.4-3.9 6.2-6.3 7.8-2 1.3-5.7 3.1-8.2 4-3 1-8.1 1.5-15.3 1.5-9.7 0-10.8-0.2-11.7-2-0.6-1.1-1-11.5-1.1-23.8-0.1-19.3 0.1-22 1.7-24.1 1.6-2.2 2.1-2.3 13.8-1.9zm-3.4 41.8c8.3 0 12-0.8 14-1.8 1.9-0.9 4.5-3.3 5.8-5.2 1.7-2.6 2.3-4.9 2.3-9 0-4.1-0.6-6.4-2.3-9-1.3-1.9-3.9-4.3-5.8-5.2-2-1-5.7-1.8-8.8-1.8h-5.2zm90-42l1.1 2.7c0.7 2 0.7 3.5 0 5-1.1 2.2-1.6 2.3-25.1 2.3v11h10c9 0 10.1 0.2 11 2q1 2 0 4.5c-1 2.4-1.4 2.5-20.5 3l-0.5 11.5h10.2c5.7 0 11.3 0.4 12.6 0.8 1.4 0.4 2.6 1.7 2.9 3.2 0.3 1.6-0.2 3.1-1.4 4.3-1.6 1.5-3.8 1.8-17.3 1.7-11.2 0-15.9-0.3-16.8-1.2-0.9-1-1.3-7.2-1.4-24.2-0.1-21 0-23.1 1.7-24.8 1.6-1.6 3.6-1.8 33.5-1.8zm25.5 0.1c1.6-0.1 3.6 0.4 4.3 1.1 0.9 1 1.2 7.2 1.2 24.8 0 17.1-0.3 23.8-1.2 24.7-0.7 0.7-2.6 1.3-4.2 1.3-1.7 0-3.7-0.5-4.4-1.2-0.9-1-1.3-7.5-1.4-25.5-0.2-20.3 0-24.2 1.2-24.6 0.8-0.3 2.9-0.6 4.5-0.6zm108.4-0.1c13.7 0 18.9 0.3 19.9 1.2 0.7 0.7 1.2 2.4 1.2 3.8 0 1.4-0.5 3.1-1.2 3.7-0.7 0.8-3.9 1.3-14.8 1.3l-0.5 40.5-2.5 0.9c-1.4 0.5-3.7 0.6-8-0.4l-0.5-40.5-14-1-0.3-3.5c-0.1-1.9 0.3-4.1 0.9-4.8 0.8-0.9 6.1-1.2 19.8-1.2zm54 0.2c15.5 0.3 15.5 0.3 16.8 2.8 1 2 1 2.9-0.1 4.5-1.2 1.8-2.6 2-24.6 2.5v11l20.5 0.5v8l-20.5 0.5v12h11c9.7 0 11.2 0.2 13 2 1.1 1.1 2 2.3 2 2.7 0 0.5-0.7 1.8-1.5 3-1.4 2.2-2 2.3-17.3 2.3-11.3 0-16.1-0.3-17-1.2-0.9-1-1.3-7.2-1.4-24.2-0.1-21.1 0-23.1 1.7-24.8 1.7-1.7 3.4-1.8 17.4-1.6zm41.3-0.2c2.5 0 4 0.5 4.3 1.5 0.3 0.8 0.5 10.3 0.5 40.5h8.5c6.2 0 8.9 0.4 10 1.5 0.8 0.8 1.5 2.1 1.5 2.7 0 0.7-0.7 2.3-1.5 3.5-1.4 2.2-2.2 2.3-14.3 2.3-8.9 0-13.1-0.3-14-1.2-0.9-1-1.3-7.4-1.4-24.9-0.2-19.1 0.1-23.7 1.2-24.7 0.8-0.7 3.1-1.2 5.2-1.2zm48.6 0c2 0 3.4 0.6 3.7 1.5 0.3 0.8 0.5 10.3 0.5 40.5h9c8.2 0 9.1 0.2 10.5 2.2 0.8 1.3 1.5 2.9 1.5 3.5 0 0.7-0.7 2-1.6 2.8-1.2 1.2-4.4 1.5-14.7 1.5-9.3 0-13.6-0.3-14.5-1.2-0.9-1-1.3-7.4-1.4-25-0.1-22.4 0-23.8 1.8-24.7 1-0.6 3.4-1.1 5.1-1.1zm46.8 0c1.6 0 3.6 0.5 4.3 1.2 0.9 1 1.2 7.2 1.2 24.8 0 17.1-0.3 23.8-1.2 24.7-0.7 0.7-2.6 1.3-4.2 1.3-1.7 0-3.7-0.5-4.4-1.2-0.9-1-1.3-7.4-1.4-24.9-0.2-19.1 0.1-23.7 1.2-24.7 0.8-0.7 2.8-1.2 4.5-1.2zm26.5 0c3.2-0.1 4 0.5 9.4 7.7 3.2 4.3 6.2 8.2 6.5 8.6 0.3 0.5 3.5-3 7.1-7.8 6.4-8.4 6.6-8.5 10.8-8.5 3.8 0 4.3 0.3 4.8 2.7 0.4 1.8-0.1 3.7-1.2 5.3-1 1.4-4.4 5.8-7.6 9.7-3.2 4-5.8 7.6-5.8 8 0 0.5 3.4 5.1 7.5 10.3 4.2 5.2 7.5 10.4 7.6 11.5 0 1.1-0.6 2.6-1.3 3.3-0.7 0.7-2.9 1.1-4.8 1-3.1-0.3-4.2-1.2-10-9.1-5.8-7.9-6.6-8.6-7.8-7-0.7 1-3.7 5.1-6.7 9-4.8 6.4-5.9 7.3-8.7 7.3-1.8 0-3.9-0.5-4.6-1.2-0.7-0.7-1.2-2.1-1.2-3.1 0-0.9 3.4-6 7.5-11.2 4.1-5.2 7.5-9.8 7.5-10.3 0.1-0.4-3.3-5.2-7.5-10.7-4.2-5.5-7.6-10.7-7.7-11.6-0.1-0.8 0.4-2 1.2-2.7 0.8-0.7 3-1.2 5-1.2z"/>
		<path id="Path 1" fill-rule="evenodd" class="s1" d="m179.2 419c1 0 2 0.7 2.3 1.5 0.3 0.8 0 2.5-0.6 3.8-0.7 1.2-12 18.4-25.2 38.2-13.2 19.8-26.9 40.2-30.4 45.3-4.4 6.4-6.8 9.1-8 8.9-1.2-0.2-1.8-1.1-1.8-2.7 0.1-1.5 6.4-11.8 16-26 8.7-12.9 21.2-31.6 27.8-41.5 6.5-9.9 13.3-20.1 15-22.8 1.8-2.7 3.9-4.7 4.9-4.7zm-24.2 7.8c1.4 0.2 3.2 1.3 4.1 2.5 0.9 1.2 1.4 3.2 1.2 4.6-0.2 1.4-2.3 5.5-4.6 9.1-2.3 3.6-6 9.2-8.3 12.5-3 4.4-4.8 6-6.4 6-1.3 0-2.5-0.4-2.7-1-0.2-0.6 3.2-6.4 7.6-13 4.4-6.6 8.1-12.6 8.1-13.2 0-0.9-1.8-1.3-5.7-1.3-3.4 0-6.6-0.6-7.8-1.4-1.8-1.2-1.8-1.6-0.5-3 1-1 3.5-1.7 7-1.9 3-0.1 6.6-0.1 8 0.1zm33.8 10.2c1.2 0 7.3 2.8 13.5 6.2 6.1 3.3 12.9 7.2 15 8.5 2 1.2 4.6 3.8 5.7 5.6 1.1 1.7 2.2 4.7 3 9.7l23.4-0.5 3.8-5.7c2.5-3.9 5-6.3 7.3-7.3 2.6-1.1 7.3-1.5 17.5-1.5 10.2 0 15 0.4 17.8 1.5 2 0.8 4.7 3 5.9 4.8 1.6 2.2 2.3 4.7 2.3 8.2 0 3-0.7 6.4-1.8 8.5-1.1 1.9-3.8 5-6.1 6.8-2.2 1.7-5.8 3.7-7.8 4.3-2.1 0.6-13.4 1.4-25.1 1.7-21.3 0.7-21.4 0.7-23.3 3.2-1.1 1.4-2 3.7-1.9 5.3 0 1.5 1.1 3.8 2.5 5.2 1.7 1.7 3.7 2.5 6.3 2.6 2 0.1 5.3 0 7.2-0.1 1.9-0.1 5.3-1.1 7.5-2.3 2.1-1.2 5.3-4.1 7-6.3 1.6-2.3 3.8-4.5 4.8-4.8 1.1-0.4 1.9 0 2.3 1.2 0.3 0.9 0 3-0.7 4.6-0.8 1.6-3.2 4.5-5.4 6.6-2.2 2-6.7 4.7-10 5.9-4.7 1.8-7.2 2.2-11.5 1.7-3-0.3-7-1.4-8.9-2.3-1.8-1-4.2-3.4-5.2-5.3-1.1-1.9-1.9-5.3-1.9-7.5 0-2.2 0.9-5.4 2-7.2 1.1-1.8 3.2-3.8 4.8-4.5 1.5-0.6 11.1-1.4 22.2-1.8q19.5-0.7 25-2.3c3.1-0.9 6.7-2.8 8.2-4.4 1.7-1.7 3-4.4 3.4-6.8 0.4-2.6 0.1-4.8-0.7-6.2-0.8-1.3-2.4-2.7-3.6-3.3-1.3-0.5-8.6-1-30.3-1l-2.6 3.3c-1.5 1.7-3.3 4.6-4.2 6.2-0.8 1.6-2.2 3.5-3.1 4.2-1.2 0.9-11.9 1.2-83.1 1.3l-2.5-2.5c-2.3-2.3-2.4-2.7-1.2-5.7 0.8-1.8 4.7-8.1 8.7-14 4.1-5.8 8.3-11.4 9.4-12.2 1.2-0.9 3.1-1.6 4.4-1.6zm-10.7 19c-2.8 4.1-5.1 8.3-5.1 9.3 0 1.6 1.7 1.7 21.5 1.7 11.8 0 22.2-0.2 23-0.5 0.8-0.3 1.5-1.6 1.5-3 0-1.6-1.2-3.6-3.5-5.5-1.9-1.6-6.1-4.3-9.2-5.9-3.2-1.6-8.2-4.3-11-6-2.9-1.7-5.9-3.1-6.7-3.1-0.8 0-2.4 1.2-3.4 2.8-1.1 1.5-4.3 6.1-7.1 10.2zm-62.1 13.1c4.1 0.1 9.8 0.6 12.5 1.3 4.4 1 5 1.4 5 3.6 0 2.3-0.4 2.5-4 2.3-2.2 0-6.9-0.4-10.5-0.8-4.9-0.6-8-0.3-12.5 1-3.3 0.9-8 2.9-10.5 4.5-2.5 1.6-6.1 4.8-8 7.2-1.9 2.4-4.6 6.8-6 9.8-2.2 4.8-2.5 6.8-2.5 16.5 0 10.4 0.2 11.4 3.2 17.5 1.9 3.9 5.1 8.3 8 11 2.6 2.4 7.3 5.5 10.3 6.9 4 1.9 7.7 2.7 13.5 2.9 5.5 0.3 9.8-0.1 14-1.3 3.3-0.9 8.2-3.1 10.9-4.8 2.7-1.8 6.3-4.8 7.9-6.7 1.7-1.9 4.4-6.4 6.1-10 2.7-5.7 3.1-7.6 3.1-15 0-7.6-0.4-9.3-3.3-15.5-1.9-3.9-4.2-8.2-5.3-9.7-1-1.6-1.9-3.5-1.9-4.3 0-0.8 0.8-1.8 1.8-2.1 1.1-0.4 2.6 0.5 4.5 2.8 1.5 1.8 4 5.8 5.6 8.8 1.5 3 3.4 8.9 4.1 13 1.1 5.9 1.1 8.9 0.2 14-0.6 3.6-2.6 9.4-4.4 13-1.8 3.6-5.3 8.5-7.8 11-2.5 2.5-7.3 5.9-10.5 7.7-3.4 1.8-9.3 3.9-13.5 4.7-4.1 0.8-8.6 1.3-10 1.1-1.4-0.2-4.5-0.6-7-0.9-2.5-0.3-7.6-2.1-11.5-4-4.6-2.3-8.8-5.4-12.2-9-3-3.1-6.7-8.6-8.5-12.3-2.5-5.5-3.2-8.4-3.6-15.3-0.3-4.7 0.1-10.9 0.7-14 0.7-3 2.4-7.7 3.7-10.5 1.4-2.7 4.2-7 6.2-9.4 2.1-2.5 6.1-6.1 9.1-8 3-2 7.8-4.4 10.5-5.3 3.2-1.1 8-1.7 12.6-1.7zm48.5 6.9c0.8 0 2 1.2 2.6 2.8 0.6 1.5 4.3 13.7 8.3 27.2 4 13.5 7.8 25.5 9.6 29h57.8c52.9 0 58 0.1 61.2 1.8 2.2 1.1 4.2 3.1 5.4 5.7 1.2 2.7 1.7 5.1 1.2 7.3-0.3 1.7-1.9 4.7-3.4 6.5-1.9 2.1-4.6 3.6-7.8 4.5-2.7 0.7-7.6 1.3-10.9 1.3-3.6 0-8.3-0.8-11.7-2-3.2-1.2-6.1-2.8-6.5-3.6-0.5-0.9-0.3-2.1 0.5-2.8 1-0.9 2.6-0.8 7.7 0.6 3.6 0.9 9 1.7 12 1.7 3.2 0 6.9-0.7 9-1.7 1.9-1 4-2.9 4.6-4.3 0.8-1.8 0.8-3.1 0-4.7-0.6-1.3-2-2.8-3.1-3.3-1.3-0.6-23.2-1-59.5-1-36.3 0-58.2-0.4-59.5-1-1.1-0.5-2.4-1.8-2.9-2.7-0.5-1-4.1-12.4-8-25.3-3.8-12.9-7.5-25.5-8.1-28-0.7-2.5-1-5.3-0.7-6.2 0.4-1 1.3-1.8 2.2-1.8zm142.3 1c0.6 0 4 2.1 7.4 4.8 3.4 2.6 7.7 6.7 9.5 9.2 1.9 2.5 4.5 6.8 5.9 9.5 1.3 2.8 2.9 8.6 3.6 13 1 6.8 0.9 9.3-0.5 16.5-0.9 4.7-3.1 11.4-4.8 15-2.1 4.4-5.3 8.6-9.7 13-4.4 4.3-9.1 7.7-13.7 9.9-5.4 2.6-8.4 3.4-13 3.5-5.5 0.1-6-0.1-5.7-1.9 0.2-1.1 0.5-2.1 0.5-2.3 0.1-0.1 2.4-0.7 5.2-1.2 2.7-0.6 7.9-2.5 11.5-4.2 3.6-1.8 8.6-5.4 11.2-8 2.8-2.8 6.3-7.9 8.3-12 2.2-4.6 3.8-9.9 4.4-14.3 0.6-4.1 0.6-9.5 0.1-13-0.5-3.3-1.9-8.2-3-11-1.2-2.7-4.1-7.2-6.3-9.9-2.3-2.7-6.2-6.3-8.7-7.9-2.5-1.7-4.6-3.1-4.8-3.1-0.1-0.1-0.4-1-0.6-2.1-0.2-1.1 0.2-2.3 0.8-2.7 0.6-0.4 1.7-0.8 2.3-0.8zm-102.7 6.1c8-0.1 16 0.2 17.8 0.6q3.2 0.8 3.2 2.6c0 0.9-0.7 1.9-1.5 2.2-0.8 0.3-8.6 0.5-17.3 0.5-8.6 0-16.4 0.4-17.2 0.9-1.3 0.8-0.9 2.7 2.8 12.8 2.4 6.5 5 12.8 7.2 16.3h47.2c40.8 0 47.2 0.2 48 1.5 0.5 0.9 0.3 2.1-0.5 3-1 1.4-7.1 1.6-96.7 1.5l-2.6-2.2c-1.9-1.7-4-6.6-8-18.3-4.7-14.1-5.2-16.2-4-18 0.7-1.1 2.6-2.3 4.2-2.6 1.6-0.4 9.4-0.7 17.4-0.8zm-99 10.9c1.1 0 2.3 0.8 2.6 1.8 0.5 1.2-0.6 2.8-4 5.7-3.5 3-5.1 5.2-6.2 9-0.9 3.1-1.2 6.5-0.8 9 0.3 2.2 1.6 5.7 2.8 7.8 1.1 2.1 3.9 5 6 6.5 3.5 2.4 5 2.7 13 2.9 5 0.2 9.5 0.7 10.1 1.2q1 1-0.5 2.6c-0.8 0.9-3.1 2.1-5 2.7-2 0.6-5.5 0.7-8 0.3-2.5-0.4-6.5-1.5-9-2.6-2.5-1-5.9-3.3-7.7-5.1-1.8-1.8-4.2-5.5-5.4-8.3-1.5-3.4-2.2-6.9-2.2-11 0-3.7 0.8-7.7 2-10.5 1.1-2.5 3.9-6.2 6.1-8.2 2.3-2.1 5.1-3.8 6.2-3.8zm200.6 1c0.7 0 2.8 1.7 4.6 3.8 1.7 2 4.2 6 5.4 8.7 1.3 2.8 2.6 6.8 2.9 9 0.4 2.8 0.2 4.6-0.8 6-1.3 1.8-1.7 1.8-3.1 0.5-0.9-0.8-1.9-3.3-2.3-5.5-0.3-2.2-1.2-5.4-1.9-7-0.7-1.6-2.6-4.9-4.3-7.2-2-2.8-2.9-5-2.5-6.3 0.3-1.1 1.2-2 2-2z"/>
		<path id="Path 2" fill-rule="evenodd" class="s2" d="m467.2 555c3.6 0 4.8 0.4 4.8 1.5 0 1-1.1 1.5-3.5 1.5-2.8 0-3.5 0.4-3.5 2 0 1.6 0.7 2 3 2q3 0 3 1.5 0 1.5-3 1.5c-2.7 0-3 0.4-3.2 3.2-0.2 1.7-0.9 3.3-1.5 3.5-1 0.2-1.4-2-1.7-7.9-0.1-4.4-0.1-8.3 0.2-8.5 0.3-0.1 2.7-0.3 5.4-0.3zm11.8 0h4.3c2.3 0 4.8 0.5 5.5 1.2 0.7 0.7 1.2 2.3 1.2 3.6 0 1.2-0.6 3.1-1.2 4.1-1.1 1.6-1 2.4 0.5 4.5 1.6 2.5 1.6 2.6 0 2.6-1 0-3-1.4-7.2-6.5l-0.1 3.8c0 2.6-0.4 3.7-1.5 3.7-1.2 0-1.5-1.6-1.5-8.5zm3.8 7.5c0.4 0.2 1.6-0.1 2.6-0.8 1-0.7 1.6-1.8 1.3-2.4-0.4-0.7-1.6-1.3-2.7-1.3q-2 0-2 2c0 1.1 0.3 2.2 0.8 2.5zm21.7-7.5c2.4 0 4.3 0.8 6 2.5 1.6 1.6 2.5 3.6 2.5 5.8 0 1.8-0.8 4.2-2 5.5-1.1 1.2-3 2.5-4.2 2.8-1.3 0.3-3.6 0-5.3-0.7-1.6-0.8-3.6-2.5-4.4-3.9-0.8-1.5-1.1-3.6-0.7-5.2 0.3-1.6 1.5-3.7 2.6-4.8 1.2-1.2 3.3-2 5.5-2zm-4.6 7.8c0 0.9 0.6 2.5 1.3 3.5 0.9 1.3 2.3 1.7 4.3 1.5 2.6-0.3 3-0.7 3.3-3.8 0.2-2.5-0.2-3.9-1.5-4.8-1-0.7-2.3-1.2-3-1.2-0.6 0-1.9 0.7-2.8 1.6-0.9 0.8-1.6 2.3-1.6 3.2zm22.1-7.8c1.4 0 2.6 1.4 6.2 9.5l2.2-4.8c1.6-3.7 2.6-4.8 4.4-4.7 2.1 0 2.2 0.4 2.2 8.5 0 7.5-0.2 8.5-1.7 8.2-1.3-0.1-1.9-1.4-2.8-9.2l-1.5 4.4c-0.8 2.4-1.8 4.5-2.2 4.7-0.5 0.2-1.9-2-5.8-10.1l0.2 5c0.2 4.1-0.1 5-1.5 5.2-1.5 0.3-1.7-0.7-1.7-8.2 0-7.8 0.2-8.5 2-8.5zm37.4 0c1.7 0 2.7 1.6 5 7.8 1.6 4.2 2.9 7.9 2.9 8.2 0 0.3-0.7 0.6-1.6 0.7-1 0.2-1.9-0.5-2.2-1.7-0.4-1.5-1.3-2-3.7-2q-3.3 0-4.5 2c-0.7 1.1-1.8 2-2.3 2-0.5 0-1-0.6-1-1.3 0-0.6 1.2-4.5 2.7-8.5 2.1-5.8 3.1-7.2 4.7-7.2zm31.1 0c5.1 0 6.5 0.3 6.5 1.5 0 0.8-0.9 1.5-2 1.5-1.8 0-2 0.7-2.2 6.7-0.2 5.3-0.6 6.8-1.8 6.8-1.2 0-1.6-1.5-1.7-6.8-0.3-6.4-0.4-6.7-2.8-6.7-1.6 0-2.5-0.6-2.5-1.5 0-1.2 1.4-1.5 6.5-1.5zm20.4 0c2.4 0 4.4 0.8 5.9 2.3 1.6 1.6 2.3 3.4 2.3 6.2 0 2.6-0.7 4.6-1.8 5.6-1 0.9-2.7 1.9-3.8 2.3-1.1 0.4-3.5 0.2-5.2-0.4-1.8-0.5-3.8-1.9-4.3-3-0.5-1.1-1.1-3.4-1.2-5.2-0.1-2.2 0.5-3.9 2.2-5.5 1.6-1.5 3.5-2.3 5.9-2.3zm-3.7 10.3c1 2 2 2.8 4.1 2.7 1.8 0 3.1-0.8 4-2.4 1-2.1 0.9-2.9-0.5-5-1-1.4-2.7-2.6-3.8-2.6-1.1 0-2.7 1-3.5 2.2-1.3 1.9-1.4 2.7-0.3 5.1zm27.8-10.3h4.5c2.7 0 5.1 0.6 6 1.5 0.8 0.8 1.5 2.1 1.5 2.8 0 0.6-0.5 1.7-1.1 2.2-0.7 0.7-0.7 1.6 0.3 3.3 1 1.6 1 2.7 0.2 4-0.6 0.9-2.6 2.1-4.5 2.6-1.9 0.5-4.2 0.6-5.1 0.3-1.5-0.6-1.8-2-1.8-8.7zm5.8 6.7c0.9-0.1 1.7-0.9 1.7-1.7 0-0.8-0.7-1.6-1.7-1.8q-1.6-0.3-1.7 1.7c-0.1 1.5 0.4 2 1.7 1.8zm0.2 6.8c0.8 0 1.5-0.8 1.5-1.8 0-1-0.7-1.7-1.8-1.7q-1.9 0-1.5 1.7c0.2 1 1 1.8 1.8 1.8zm39-13.5h5c3.8 0 5 0.4 5 1.5 0 1-1.1 1.5-3.5 1.5-2.8 0-3.5 0.4-3.5 2 0 1.6 0.7 2 3 2q3 0 3 1.5 0 1.5-3 1.5-3 0-3 1.5c0 1 1.1 1.5 3.5 1.5 2.8 0 3.5 0.4 3.5 2 0 1.7-0.7 2-10 2zm23.2 0c3.6 0 4.8 0.4 4.8 1.5 0 1-1.1 1.6-3.2 1.7-2.2 0.2-3.4 0.9-3.5 2-0.2 1.4 0.4 1.8 2.7 1.8q3 0 3 1.5 0 1.5-3 1.5c-2.8 0-3 0.3-3 3.5 0 2.4-0.5 3.5-1.5 3.5-1.2 0-1.6-1.7-1.9-8.2-0.1-4.4-0.1-8.3 0.2-8.5 0.3-0.1 2.7-0.3 5.4-0.3zm16.8 0c3.8 0 5 0.4 5 1.5 0 1-1.1 1.5-3.5 1.5-2.8 0-3.5 0.4-3.5 2 0 1.6 0.7 2 3 2q3 0 3 1.5 0 1.5-3 1.5c-2.8 0-3 0.3-3 3.5 0 2.4-0.5 3.5-1.5 3.5-1.2 0-1.6-1.7-1.8-7.8-0.2-4.2-0.2-8 0-8.5 0.2-0.4 2.6-0.7 5.3-0.7zm18.9 0c2.4 0 4.4 0.8 5.9 2.3 1.5 1.4 2.3 3.4 2.3 5.7 0 2-0.9 4.6-2 6-1.5 2-2.8 2.5-6.1 2.5-3.3 0-4.6-0.5-6.1-2.5-1.1-1.4-2.1-4-2.1-5.9-0.1-2.5 0.5-4.2 2.2-5.8 1.6-1.5 3.5-2.3 5.9-2.3zm-4.4 9.7c0.5 1.4 2 3 3.3 3.4 1.6 0.7 2.7 0.4 4.2-1.1 1.4-1.4 1.8-2.7 1.4-4.3-0.4-1.2-1.2-2.8-1.8-3.5-0.6-0.7-1.8-1.3-2.7-1.2-0.9 0-2.5 0.9-3.5 2.1-1.5 1.6-1.7 2.5-0.9 4.6zm23.3-9.7c2.3 0 5.1 0.5 6.2 1q2 1 2 4c0 1.9-0.7 3.3-1.7 3.9-1.7 0.8-1.6 1.1 0.5 4 1.2 1.7 2.1 3.4 2 3.7-0.2 0.3-1.2 0.3-2.3 0-1.1-0.3-2.9-2-6-7.1l-0.2 3.7c-0.2 2.6-0.8 3.8-1.8 3.8-1.2 0-1.5-1.4-1.5-6.3 0-3.4-0.3-7.2-0.7-8.5-0.6-2-0.3-2.2 3.5-2.2zm2.2 7q2 0 1.7-1.8c-0.1-0.9-1-1.8-1.9-2-1.1-0.2-1.7 0.4-1.7 1.7-0.1 1.5 0.5 2.1 1.9 2.1zm17.9-7c5.6 0 7.1 0.3 7.1 1.5 0 0.9-0.9 1.5-2.5 1.5-2.4 0-2.5 0.3-2.7 6.7-0.2 5.3-0.6 6.8-1.8 6.8-1.2 0-1.6-1.5-1.7-6.8-0.3-6-0.5-6.7-2.5-7-1.2-0.1-2.3-0.8-2.6-1.5-0.3-0.9 1.4-1.2 6.7-1.2zm14.6 0c1.2 0 1.5 1.4 1.5 13h3.5c2.8 0 3.5 0.4 3.5 2 0 1.7-0.7 2-10 2v-8.5c0-6.9 0.3-8.5 1.5-8.5zm14.5-0.1l5.3 0.3c2.8 0.2 5.1 0.8 5 1.3-0.1 0.5-1.6 1.1-3.3 1.2-2.2 0.2-3 0.8-3 2.3 0 1.6 0.7 2 3 2q3 0 3 1.5 0 1.5-3 1.5-3 0-3 1.5c0 1 1.1 1.6 3.3 1.7 2.1 0.2 3.2 0.8 3.2 1.8 0 1.1-1.2 1.5-10 1.5zm23.5 0.4c1.9 0.1 3 0.8 3.2 2 0.2 1.4-0.2 1.6-2.7 1-2.4-0.6-3.1-0.5-3 0.7 0 0.8 1.5 2.4 3.3 3.5 1.8 1.2 3.3 3 3.4 4.3 0.2 1.4-0.6 2.8-2 3.7-1.5 1.1-3.1 1.3-5.1 0.8-1.6-0.4-3.1-1.2-3.4-1.8-0.2-0.5 0-1.4 0.6-2q1.1-1 2.6 0.3c0.9 0.6 2 1 2.6 0.7 0.5-0.3 1-0.9 1-1.5 0-0.5-1.6-1.9-3.5-3-2.4-1.3-3.6-2.8-3.7-4.4-0.1-1.6 0.6-2.9 1.8-3.5 1-0.6 3.2-1 4.9-0.8zm17.4-0.1q3.6 0.3 3.6 1.8c0 1.1-0.9 1.4-3.3 1.3-2-0.2-3.2 0.2-3.2 1-0.1 0.6 1.4 1.9 3.2 2.7 2.4 1.1 3.3 2.2 3.5 4.3 0.2 2-0.4 3.2-2.3 4.5-2.1 1.3-3.2 1.5-5.3 0.7-1.4-0.6-2.6-1.7-2.6-2.5 0-0.8 0.6-1.4 1.5-1.4 0.8 0.1 2.1 0.3 2.8 0.5 0.8 0.2 1.6 0 1.9-0.6 0.2-0.5-1.2-2-3.2-3.2-1.9-1.3-3.6-3-3.7-4-0.1-0.9 0.7-2.5 1.7-3.5 1.3-1.3 3-1.8 5.4-1.6zm13-0.2c1.9 0 2.1 0.6 2.1 13h3c2.3 0 3 0.5 3 2 0 1.8-0.6 2-9.5 1.5l-0.3-8.2c-0.3-7.8-0.2-8.3 1.7-8.3zm14.1 0c1.2 0 2.7 1.3 5.8 6.5l1.6-3.2c1-2.1 2.3-3.3 3.6-3.3 1.1 0 2 0.2 2 0.5 0 0.3-1.4 2.6-3.1 5.3q-3 4.7-2.7 7.7c0.2 2.2-0.2 3-1.5 3.2-1.3 0.2-1.9-0.6-2.3-3.9-0.3-2.4-1.7-6-3-8-1.3-2.1-2.4-4-2.4-4.3 0-0.3 0.9-0.5 2-0.5zm-218.2 12c0.4-0.1 1.2 0.5 1.9 1.2 0.9 1 1 1.6 0.1 2.6-0.7 0.6-1.6 1.2-2 1.2-0.5 0-1.1-0.7-1.3-1.5-0.3-0.8-0.3-1.9 0-2.5 0.3-0.5 0.9-1 1.3-1z"/>
	</g>
</svg>